<?xml version="1.0" standalone="no"?>
<!DOCTYPE svg PUBLIC "-//W3C//DTD SVG 20010904//EN"
 "http://www.w3.org/TR/2001/REC-SVG-20010904/DTD/svg10.dtd">
<svg version="1.0" xmlns="http://www.w3.org/2000/svg"
 width="800.000000pt" height="250.000000pt" viewBox="0 0 800.000000 250.000000"
 preserveAspectRatio="xMidYMid meet">

<g transform="translate(0.000000,250.000000) scale(0.100000,-0.100000)"
fill="#000000" stroke="none">
<path d="M6089 2121 c-41 -8 -99 -50 -125 -89 -18 -28 -28 -146 -11 -135 5 3
6 -3 2 -16 -4 -15 3 -37 25 -73 40 -64 57 -81 72 -72 8 5 9 2 5 -10 -5 -12 0
-19 18 -26 14 -5 25 -14 25 -18 0 -20 115 -60 178 -61 38 -1 62 2 58 7 -3 6 1
13 10 16 9 3 12 2 8 -5 -10 -16 49 16 67 37 32 38 52 110 45 166 -4 28 -12 61
-19 72 -6 12 -10 24 -9 28 1 3 -5 11 -12 18 -12 9 -14 6 -12 -15 2 -14 12 -32
22 -40 16 -12 16 -14 3 -15 -20 0 -39 41 -34 72 10 50 -123 145 -212 152 -12
0 -25 4 -29 9 -8 8 -24 8 -75 -2z m-11 -36 c-3 -3 -9 2 -12 12 -6 14 -5 15 5
6 7 -7 10 -15 7 -18z m-28 5 c0 -5 -12 -17 -27 -25 l-28 -16 33 5 c20 4 31 2
27 -4 -8 -13 -52 -13 -60 0 -3 5 5 15 19 22 14 6 26 15 26 20 0 4 2 8 5 8 3 0
5 -4 5 -10z m289 -52 c13 -10 18 -18 11 -18 -8 0 -11 -9 -7 -26 2 -14 1 -22
-3 -17 -5 4 -10 17 -12 28 -2 13 -10 19 -23 17 -20 -3 -20 -3 0 12 26 20 13
20 -28 0 l-32 -15 25 20 c14 11 19 21 13 21 -7 0 -13 5 -13 10 0 11 27 -2 69
-32z m-346 -33 c-3 -9 -8 -14 -10 -11 -3 3 -2 9 2 15 9 16 15 13 8 -4z m384
-10 c8 -9 13 -18 11 -21 -3 -2 -13 5 -23 16 -21 23 -11 27 12 5z m-410 -27
c-3 -8 -6 -5 -6 6 -1 11 2 17 5 13 3 -3 4 -12 1 -19z m378 -26 c-3 -3 -11 0
-18 7 -9 10 -8 11 6 5 10 -3 15 -9 12 -12z m-365 -76 c0 -3 -4 -8 -10 -11 -5
-3 -10 -1 -10 4 0 6 5 11 10 11 6 0 10 -2 10 -4z m20 -49 c0 -4 -6 -2 -14 5
-8 7 -12 17 -9 22 5 8 23 -12 23 -27z m427 -14 c-3 -10 -5 -2 -5 17 0 19 2 27
5 18 2 -10 2 -26 0 -35z m-9 -38 c-3 -3 -9 2 -12 12 -6 14 -5 15 5 6 7 -7 10
-15 7 -18z m-344 6 c4 -5 -3 -7 -14 -4 -23 6 -26 13 -6 13 8 0 17 -4 20 -9z
m376 -11 c0 -5 -4 -10 -10 -10 -5 0 -10 -7 -10 -17 0 -9 -3 -14 -6 -10 -8 8 5
47 17 47 5 0 9 -4 9 -10z m-380 -15 c9 -11 10 -19 3 -26 -8 -8 -11 -6 -10 7 1
11 -4 18 -10 17 -7 -2 -13 2 -13 7 0 15 16 12 30 -5z m120 -55 c-12 -8 -12
-10 -1 -10 8 0 12 -2 9 -5 -3 -3 -13 -2 -22 1 -14 5 -15 9 -4 15 7 5 18 9 23
9 6 0 3 -5 -5 -10z m191 -8 c-10 -3 -10 -6 -1 -12 7 -4 8 -10 4 -13 -5 -3 -15
1 -22 9 -8 9 -9 14 -2 14 6 0 8 4 5 10 -4 6 1 7 11 3 13 -5 14 -8 5 -11z
m-214 -18 c-3 -3 -12 -4 -19 -1 -8 3 -5 6 6 6 11 1 17 -2 13 -5z m43 -15 c0
-6 7 -8 18 -4 13 5 14 3 5 -6 -9 -9 -17 -8 -34 5 -19 13 -20 16 -6 16 9 0 17
-5 17 -11z"/>
<path d="M5453 2086 c-63 -20 -106 -51 -140 -98 -42 -60 -56 -109 -51 -184 3
-52 9 -70 34 -101 42 -53 87 -73 159 -73 190 0 340 209 264 367 -39 82 -163
123 -266 89z"/>
<path d="M4063 1954 c-17 -7 -18 -176 -2 -206 8 -15 8 -19 -1 -13 -8 5 -11 0
-10 -16 5 -51 0 -53 -37 -17 -49 46 -68 55 -131 64 -47 6 -54 4 -71 -17 -17
-21 -22 -22 -41 -11 -19 12 -26 8 -75 -40 -47 -46 -106 -142 -76 -123 17 10
13 -11 -4 -25 -22 -18 -18 -60 8 -89 12 -14 14 -20 5 -13 -14 11 -16 10 -13
-10 4 -37 16 -58 28 -51 6 4 8 0 4 -10 -4 -10 0 -20 9 -25 9 -5 17 -13 17 -18
3 -12 63 -65 79 -68 7 -2 21 -6 30 -10 9 -4 22 -5 28 -1 5 3 10 2 10 -2 0 -5
17 -8 38 -7 85 5 96 10 162 73 14 14 18 22 10 19 -11 -4 -16 0 -16 13 0 16 2
17 17 3 14 -13 18 -12 30 7 14 21 15 21 15 1 0 -11 -3 -19 -7 -16 -4 2 -10 -3
-13 -12 -3 -8 -2 -12 3 -9 5 3 13 1 16 -5 4 -6 1 -9 -7 -8 -8 2 -13 -6 -13
-22 0 -21 5 -24 38 -26 l37 -3 -2 347 -3 347 -25 2 c-14 1 -31 -1 -37 -3z
m-208 -210 c-11 -8 -19 -19 -18 -24 2 -5 -4 -7 -13 -3 -12 4 -10 10 13 24 34
23 46 24 18 3z m61 -8 c16 -13 17 -15 3 -21 -8 -3 -26 -1 -40 4 -18 7 -20 10
-6 10 10 1 15 6 12 11 -9 15 8 12 31 -4z m48 -18 c-5 -7 -2 -9 8 -6 8 4 15 1
15 -7 0 -7 -5 -11 -12 -9 -6 3 -11 -5 -12 -16 -1 -11 1 -19 5 -18 13 4 68 -59
64 -72 -3 -8 0 -10 7 -6 16 10 14 27 -6 43 -16 13 -16 13 5 3 22 -11 23 -10
17 12 -9 27 -3 23 15 -11 6 -13 8 -21 3 -18 -5 3 -13 -10 -19 -29 -6 -19 -7
-34 -3 -34 5 0 9 5 9 12 0 6 3 8 6 5 4 -4 2 -13 -4 -20 -7 -7 -13 -39 -14 -70
-1 -30 -5 -54 -9 -51 -9 5 -20 -22 -12 -30 10 -9 34 23 31 41 -1 10 1 19 5 21
4 1 7 0 7 -3 0 -3 0 -14 0 -24 0 -11 -7 -26 -15 -34 -8 -8 -11 -18 -7 -22 4
-4 -3 -3 -14 3 -18 9 -25 8 -40 -9 -15 -17 -16 -22 -4 -29 10 -6 6 -8 -15 -6
-16 2 -34 -2 -40 -9 -5 -6 -23 -17 -40 -23 -28 -11 -28 -11 -11 3 19 14 19 15
-10 14 -44 -2 -65 -9 -59 -20 4 -5 -6 -4 -20 3 -15 7 -22 14 -16 16 18 6 13
20 -10 27 -11 4 -34 28 -50 53 -27 43 -30 54 -28 124 1 43 6 75 10 72 10 -6
11 -3 14 41 1 17 -3 33 -9 38 -8 5 -8 9 0 15 6 4 14 14 17 22 4 12 6 11 6 -2
1 -22 8 -23 27 -3 9 8 23 14 32 14 15 -1 15 -2 0 -6 -10 -2 -18 -9 -18 -15 0
-5 7 -7 16 -4 9 3 12 2 9 -5 -4 -5 -16 -7 -27 -3 -14 4 -18 2 -14 -5 10 -15
-7 -14 -22 1 -9 9 -12 9 -12 1 0 -7 5 -15 11 -19 8 -4 7 -9 -2 -15 -7 -4 -11
-10 -8 -13 3 -3 14 2 25 12 11 10 41 26 67 35 41 14 53 14 93 2 33 -10 44 -10
41 -2 -3 7 -11 11 -18 9 -9 -2 -7 4 5 17 20 22 42 29 30 9z m111 -27 c0 -16
-3 -27 -7 -25 -6 4 -5 29 1 52 4 11 7 -3 6 -27z m-406 -55 c-12 -26 -29 -35
-29 -16 0 6 4 10 9 10 5 0 13 9 16 21 4 11 9 18 11 16 3 -2 -1 -16 -7 -31z m8
-86 c-6 -17 -15 -30 -19 -30 -11 0 -10 18 2 25 6 3 10 15 10 26 0 11 4 18 9
15 5 -4 5 -19 -2 -36z m-17 20 c0 -5 -5 -10 -11 -10 -5 0 -7 5 -4 10 3 6 8 10
11 10 2 0 4 -4 4 -10z m1 -133 c-6 -8 -8 -17 -4 -20 3 -4 12 1 20 11 8 9 12
12 9 5 -8 -15 4 -44 14 -38 5 3 12 0 16 -6 4 -7 3 -9 -3 -6 -6 4 -14 0 -17 -9
-4 -11 -2 -15 7 -11 7 3 20 -1 30 -7 14 -11 12 -13 -13 -13 -29 0 -35 7 -30
37 1 11 -4 10 -21 -5 -13 -11 -18 -13 -12 -5 14 19 1 46 -17 35 -9 -6 -11 -4
-5 6 13 22 27 39 32 39 3 0 0 -6 -6 -13z m90 -117 c-13 -11 -28 -20 -35 -20
-6 0 3 9 19 20 38 25 47 25 16 0z m47 -35 c21 -6 22 -25 1 -25 -6 0 -7 5 -3
11 5 8 -1 10 -19 7 -17 -3 -24 -1 -20 5 4 6 0 8 -11 4 -10 -4 -15 -3 -11 4 4
5 14 8 23 5 10 -2 27 -7 40 -11z m317 5 c3 -5 1 -10 -4 -10 -6 0 -11 5 -11 10
0 6 2 10 4 10 3 0 8 -4 11 -10z m-258 -6 c-3 -3 -12 -4 -19 -1 -8 3 -5 6 6 6
11 1 17 -2 13 -5z m74 -11 c13 -17 13 -17 -6 -3 -11 8 -22 16 -24 17 -2 2 0 3
6 3 6 0 17 -8 24 -17z m-44 -19 c-3 -3 -12 -4 -19 -1 -8 3 -5 6 6 6 11 1 17
-2 13 -5z"/>
<path d="M3898 1723 c7 -3 16 -2 19 1 4 3 -2 6 -13 5 -11 0 -14 -3 -6 -6z"/>
<path d="M3795 1320 c-3 -5 -2 -10 4 -10 5 0 13 5 16 10 3 6 2 10 -4 10 -5 0
-13 -4 -16 -10z"/>
<path d="M4930 1899 c-70 -29 -119 -127 -106 -214 10 -65 49 -91 111 -74 110
31 185 191 122 264 -25 30 -86 41 -127 24z"/>
<path d="M3220 1756 c-56 -16 -90 -34 -90 -47 0 -6 6 -7 13 -3 9 6 9 5 0 -8
-7 -8 -9 -19 -5 -23 4 -5 1 -5 -6 -1 -7 4 -10 12 -7 17 11 16 -5 9 -28 -12
-12 -12 -15 -19 -7 -15 12 6 11 5 -1 -6 -50 -42 -71 -148 -44 -230 25 -76 69
-133 73 -95 5 38 9 54 16 65 4 6 3 12 -1 12 -5 0 -10 13 -11 30 l-2 30 207 2
208 3 3 48 c2 30 -1 47 -8 47 -6 0 -9 4 -6 9 4 5 2 21 -4 36 -9 23 -13 25 -25
15 -11 -9 -15 -9 -15 -1 0 7 -5 9 -10 6 -6 -4 -8 -10 -6 -14 3 -4 -1 -8 -9 -8
-8 0 -13 2 -11 5 2 2 -3 12 -12 22 -17 21 -26 53 -11 44 5 -3 7 -10 4 -15 -4
-5 -2 -9 4 -9 17 0 24 22 10 31 -8 5 -9 9 -4 9 6 0 18 -9 28 -21 16 -18 16
-20 1 -17 -9 2 -19 -2 -21 -8 -3 -10 37 -14 46 -4 8 9 -31 60 -46 60 -8 0 -12
4 -9 9 3 4 -7 14 -21 20 -24 11 -29 10 -43 -10 -15 -19 -21 -20 -46 -10 l-29
11 35 -5 35 -6 -35 21 c-19 12 -26 18 -15 14 44 -15 55 -16 55 -7 0 5 -6 10
-12 11 -64 10 -100 9 -138 -2z m39 -10 c-2 -2 -17 -6 -34 -10 -22 -5 -26 -4
-15 4 14 9 59 15 49 6z m-74 -16 c-3 -5 -12 -10 -18 -10 -7 0 -6 4 3 10 19 12
23 12 15 0z m235 -6 c0 -2 -7 -4 -15 -4 -8 0 -15 4 -15 10 0 5 7 7 15 4 8 -4
15 -8 15 -10z m-203 -10 c-3 -3 -12 -4 -19 -1 -8 3 -5 6 6 6 11 1 17 -2 13 -5z
m73 1 c0 -3 -10 -10 -22 -15 -18 -8 -10 -9 34 -7 31 1 55 0 53 -3 -2 -4 6 -12
18 -20 19 -12 21 -11 10 2 -13 15 -8 28 11 28 7 0 6 -4 -2 -8 -9 -6 -8 -13 7
-29 21 -22 45 -65 55 -100 l7 -23 -169 0 c-154 0 -170 2 -174 18 -3 10 1 23 9
30 7 7 11 17 8 23 -4 5 -1 9 4 9 6 0 11 5 11 10 0 6 -3 9 -7 9 -17 -3 -24 2
-18 11 5 8 11 7 21 0 10 -9 19 -7 39 8 14 11 21 23 16 26 -5 4 -16 -3 -24 -14
l-14 -21 -6 21 c-3 11 -1 17 4 14 6 -3 16 -1 24 6 9 7 15 8 20 0 3 -5 13 -10
21 -10 8 0 13 4 10 9 -5 7 14 18 52 30 1 1 2 -1 2 -4z m-191 -143 c1 -13 -3
-20 -9 -17 -5 3 -10 1 -10 -6 0 -7 -3 -9 -6 -6 -4 4 -2 13 5 20 6 8 9 29 6 48
-4 29 -3 30 4 9 5 -14 9 -35 10 -48z m-38 5 c-10 -9 -11 -8 -5 6 3 10 9 15 12
12 3 -3 0 -11 -7 -18z m406 -9 c-3 -8 -6 -5 -6 6 -1 11 2 17 5 13 3 -3 4 -12
1 -19z m33 -15 c0 -7 -8 -13 -17 -13 -13 0 -14 3 -6 11 6 6 9 19 6 28 -4 14
-3 14 6 1 6 -8 11 -21 11 -27z m-77 -60 c-57 -2 -149 -2 -205 0 -57 1 -11 3
102 3 113 0 159 -2 103 -3z m-354 -76 c0 -21 -1 -21 -9 -2 -12 28 -12 37 0 30
6 -3 10 -16 9 -28z m23 -17 c-2 -16 -6 -30 -8 -30 -2 0 -4 14 -4 30 0 17 4 30
8 30 5 0 7 -13 4 -30z m9 -53 c-10 -9 -11 -8 -5 6 3 10 9 15 12 12 3 -3 0 -11
-7 -18z"/>
<path d="M2774 1747 c-2 -7 -3 -118 -2 -246 l3 -234 40 -3 c22 -1 32 0 23 3
-10 2 -18 12 -17 21 0 11 2 12 6 5 14 -37 22 0 22 110 0 67 4 138 9 158 11 41
43 100 52 94 3 -2 7 5 7 16 1 10 -3 19 -9 19 -6 0 -8 -3 -5 -7 9 -9 -13 -34
-24 -27 -5 3 -9 -3 -10 -13 0 -14 -2 -15 -6 -3 -3 8 -11 22 -18 30 -7 8 -15
26 -19 40 -5 21 -3 20 9 -5 l14 -30 1 43 c0 31 -4 42 -15 42 -8 0 -15 -5 -15
-12 0 -9 -3 -9 -12 0 -15 15 -27 15 -34 -1z m21 -18 c-4 -6 1 -16 11 -24 11
-7 16 -17 11 -21 -4 -4 -7 -2 -7 4 0 7 -4 12 -10 12 -6 0 -11 -71 -13 -177
l-3 -178 -1 198 c-1 124 2 197 8 197 6 0 7 -5 4 -11z m45 -99 c-6 -4 -11 -10
-10 -14 1 -4 -1 -12 -4 -19 -2 -6 -3 -1 -1 13 2 14 4 29 4 33 1 5 6 5 12 1 8
-5 8 -9 -1 -14z m6 -52 c-19 -27 -21 -19 -4 18 7 14 14 21 16 15 2 -6 -4 -21
-12 -33z m-39 -70 c-3 -8 -6 -5 -6 6 -1 11 2 17 5 13 3 -3 4 -12 1 -19z m-3
-220 c7 -5 5 -8 -6 -8 -13 0 -18 7 -17 28 1 21 2 22 6 7 3 -11 10 -23 17 -27z"/>
<path d="M2979 1755 c-3 -2 -16 -6 -29 -8 -24 -4 -42 -27 -20 -27 6 0 9 3 7 8
-3 4 6 8 20 9 19 1 22 -1 12 -8 -8 -5 -9 -9 -3 -9 7 0 15 -8 18 -17 6 -16 6
-16 -12 0 -11 10 -26 15 -36 11 -18 -7 -21 -20 -6 -29 6 -4 8 -12 4 -18 -3 -7
0 -5 8 3 7 8 24 15 38 15 22 0 25 5 28 38 2 26 -1 37 -11 37 -7 0 -16 -2 -18
-5z"/>
<path d="M3775 1750 c-3 -5 -2 -10 4 -10 5 0 13 5 16 10 3 6 2 10 -4 10 -5 0
-13 -4 -16 -10z"/>
<path d="M2882 1702 c-24 -30 -28 -44 -9 -36 18 7 48 52 39 58 -4 2 -17 -8
-30 -22z"/>
<path d="M4670 1698 c-33 -54 -41 -146 -13 -155 34 -12 102 111 89 162 -10 38
-51 34 -76 -7z"/>
<path d="M3140 1375 c7 -9 8 -15 2 -15 -5 0 -12 -7 -15 -14 -4 -10 -1 -13 9
-9 7 3 14 9 14 15 0 5 11 1 24 -9 13 -10 22 -20 20 -22 -2 -2 -10 2 -19 9 -13
11 -19 10 -35 -5 -19 -17 -19 -18 3 -35 24 -19 51 -15 43 6 -3 8 -1 14 5 14 7
0 9 -10 5 -26 -5 -18 -3 -24 5 -19 6 4 15 2 19 -5 7 -12 49 -15 135 -10 l40 2
-34 17 -33 18 31 0 c18 0 27 -3 21 -7 -7 -5 -3 -9 11 -13 31 -8 110 46 106 74
-5 28 -23 44 -32 28 -5 -7 -4 -10 2 -6 21 13 8 -26 -14 -40 -12 -8 -20 -20
-16 -26 4 -6 1 -7 -7 -2 -10 6 -8 12 9 26 13 11 17 20 11 24 -8 5 -7 11 1 21
6 8 9 17 5 21 -9 9 -36 -29 -31 -44 6 -18 -14 -27 -30 -13 -20 17 -19 1 1 -21
16 -17 15 -18 -9 -6 -14 6 -23 15 -21 19 6 10 -10 11 -19 1 -12 -11 -97 -13
-97 -2 0 6 -9 7 -21 4 -15 -5 -19 -4 -15 4 4 6 1 11 -7 11 -8 0 -25 11 -38 25
-26 26 -50 35 -29 10z m180 -105 c0 -5 -2 -10 -4 -10 -3 0 -8 5 -11 10 -3 6
-1 10 4 10 6 0 11 -4 11 -10z m-30 -10 c0 -5 -5 -10 -11 -10 -5 0 -7 5 -4 10
3 6 8 10 11 10 2 0 4 -4 4 -10z"/>
<path d="M3400 1340 c0 -5 5 -10 11 -10 5 0 7 5 4 10 -3 6 -8 10 -11 10 -2 0
-4 -4 -4 -10z"/>
<path d="M1930 1073 c0 -186 -1 -195 -17 -181 -44 38 -88 52 -168 52 -95 1
-143 -20 -199 -85 -52 -61 -76 -133 -76 -229 0 -107 25 -173 89 -233 98 -92
244 -103 343 -26 20 16 39 29 42 29 3 0 6 -16 6 -35 l0 -35 85 0 85 0 0 470 0
470 -95 0 -95 0 0 -197z m-48 -309 c55 -28 80 -119 53 -189 -24 -63 -64 -90
-137 -90 -66 0 -103 21 -130 76 -30 58 -18 152 25 188 49 40 128 46 189 15z"/>
<path d="M5028 1214 c-36 -19 -48 -43 -48 -94 0 -58 42 -100 100 -100 52 0 76
13 95 50 25 49 19 88 -19 126 -38 38 -81 44 -128 18z"/>
<path d="M4700 755 l0 -426 93 3 92 3 3 423 2 422 -95 0 -95 0 0 -425z"/>
<path d="M3630 1020 l0 -90 -60 0 -60 0 0 -70 0 -70 60 0 60 0 0 -165 c0 -117
4 -175 14 -198 18 -43 67 -84 119 -98 43 -12 184 -8 205 5 8 4 12 35 12 82 l0
74 -27 -7 c-46 -13 -95 -6 -117 17 -19 19 -21 32 -21 153 l0 132 83 3 82 3 0
69 0 69 -82 3 -83 3 -3 88 -3 87 -89 0 -90 0 0 -90z"/>
<path d="M2434 939 c-98 -22 -199 -113 -226 -202 -19 -63 -14 -175 10 -229 28
-65 85 -123 150 -155 50 -24 69 -27 152 -28 84 0 102 3 150 27 31 15 68 40 84
57 l28 29 -67 48 c-59 42 -68 45 -77 31 -13 -24 -82 -57 -118 -57 -48 0 -98
26 -120 62 -36 59 -40 58 196 58 l217 0 -6 73 c-8 104 -32 163 -87 218 -71 71
-169 94 -286 68z m119 -133 c36 -15 67 -54 67 -86 0 -19 -6 -20 -121 -20
l-121 0 7 28 c9 36 42 70 79 81 44 13 53 13 89 -3z"/>
<path d="M3171 938 c-18 -6 -49 -26 -67 -43 l-34 -32 0 33 0 34 -90 0 -90 0 0
-300 0 -301 93 3 92 3 5 197 c5 188 6 197 28 221 42 45 127 41 155 -7 8 -14
14 -89 17 -216 l5 -195 93 -3 94 -3 -4 228 c-3 222 -4 229 -30 285 -21 45 -35
61 -69 79 -51 25 -148 34 -198 17z"/>
<path d="M4235 936 c-58 -14 -125 -47 -145 -71 -12 -14 -7 -22 35 -65 l49 -50
26 24 c64 62 171 63 222 2 34 -41 24 -54 -49 -60 -253 -22 -333 -73 -333 -211
0 -88 37 -141 119 -170 86 -30 188 -15 246 37 l35 30 0 -36 0 -36 86 0 86 0
-4 223 c-3 248 -12 285 -77 340 -63 52 -186 70 -296 43z m205 -375 c0 -74 -81
-129 -165 -113 -26 5 -65 45 -65 67 0 44 85 83 183 84 l47 1 0 -39z"/>
<path d="M5440 935 c-53 -15 -133 -56 -144 -74 -3 -5 15 -32 40 -60 47 -52 47
-52 68 -33 82 75 215 66 244 -17 9 -27 9 -31 -6 -31 -75 -1 -219 -23 -264 -40
-62 -23 -90 -49 -113 -102 -38 -92 -3 -185 85 -231 49 -26 63 -28 125 -25 73
5 151 35 162 63 10 27 23 15 23 -20 l0 -36 83 3 82 3 0 205 c-1 142 -5 217
-14 245 -37 111 -100 155 -234 161 -54 3 -101 -1 -137 -11z m217 -351 c12 -31
-16 -92 -51 -114 -43 -26 -116 -29 -151 -6 -32 21 -34 67 -3 95 39 37 193 56
205 25z"/>
<path d="M4990 630 l0 -301 93 3 92 3 3 298 2 297 -95 0 -95 0 0 -300z"/>
<path d="M5918 394 c-13 -28 -3 -54 23 -62 8 -2 6 2 -5 10 -24 19 -17 49 14
65 25 13 25 13 2 13 -15 0 -27 -9 -34 -26z"/>
<path d="M5988 383 c3 -18 -1 -30 -13 -40 -11 -7 -14 -13 -9 -13 27 0 48 60
25 74 -4 3 -6 -6 -3 -21z"/>
<path d="M5940 373 c0 -22 2 -25 10 -13 9 13 10 13 10 0 1 -12 3 -11 11 3 12
20 4 37 -17 37 -9 0 -14 -10 -14 -27z"/>
</g>
</svg>
